<?xml version="1.0" encoding="UTF-8" standalone="no"?>
<svg
   width="512"
   height="512"
   viewBox="0 0 512 512"
   role="img"
   aria-labelledby="bitcoinix-title bitcoinix-description"
   version="1.1"
   id="svg16"
   sodipodi:docname="logo.svg"
   inkscape:version="1.4.4 (dcaf3e7, 2026-05-05)"
   xmlns:inkscape="http://www.inkscape.org/namespaces/inkscape"
   xmlns:sodipodi="http://sodipodi.sourceforge.net/DTD/sodipodi-0.dtd"
   xmlns="http://www.w3.org/2000/svg"
   xmlns:svg="http://www.w3.org/2000/svg"
   xmlns:rdf="http://www.w3.org/1999/02/22-rdf-syntax-ns#"
   xmlns:cc="http://creativecommons.org/ns#"
   xmlns:dc="http://purl.org/dc/elements/1.1/">
  <defs
     id="defs16" />
  <sodipodi:namedview
     id="namedview16"
     pagecolor="#ffffff"
     bordercolor="#000000"
     borderopacity="0.25"
     inkscape:showpageshadow="2"
     inkscape:pageopacity="0.0"
     inkscape:pagecheckerboard="0"
     inkscape:deskcolor="#d1d1d1"
     showgrid="false"
     inkscape:zoom="1.2266159"
     inkscape:cx="261.28798"
     inkscape:cy="251.9126"
     inkscape:window-width="1421"
     inkscape:window-height="895"
     inkscape:window-x="49"
     inkscape:window-y="33"
     inkscape:window-maximized="1"
     inkscape:current-layer="svg16" />
  <title
     id="bitcoinix-title">bitcoinix</title>
  <desc
     id="bitcoinix-description">A blue Nix snowflake surrounding the Bitcoin symbol, followed by the lowercase word bitcoinix. Transparent background; all lettering is outlined.</desc>
  <g
     id="g1"
     transform="matrix(1.7984059,0,0,1.7984059,-19.156103,-2.9704496)">
    <path
       fill="#7eb7e1"
       d="m 99.261,156.545 88.446,105.416 -31.085,5.782 -23.647,-28.342 -12.687,34.575 -15.472,2.722 -10.337,-12.292 18.085,-49.204 -24.078,-28.813 z"
       id="path1"
       style="fill:#f7931a;fill-opacity:1" />
    <path
       fill="#5176c1"
       d="m 115.267,103.733 -47.07,129.305 -20.55,-24.029 12.72,-34.651 -36.286,6.3 -10.093,-12.038 5.477,-15.098 51.654,-8.94 12.914,-35.258 z"
       id="path2" />
    <path
       fill="#7eb7e1"
       d="M 169.005,91.189 33.49,115.077 44.024,85.266 80.393,78.957 56.794,50.682 l 5.378,-14.759 15.814,-2.807 33.57,40.264 36.991,-6.445 z"
       id="path3"
       style="fill:#f7931a;fill-opacity:1" />
    <path
       fill="#5176c1"
       d="m 206.739,131.455 -88.446,-105.416 31.085,-5.782 23.647,28.342 12.687,-34.575 15.472,-2.722 10.337,12.292 -18.085,49.204 24.078,28.813 z"
       id="path4" />
    <path
       fill="#7eb7e1"
       d="m 190.733,184.267 47.07,-129.305 20.55,24.029 -12.72,34.651 36.286,-6.3 10.093,12.038 -5.477,15.098 -51.654,8.94 -12.914,35.258 z"
       id="path5"
       style="fill:#f7931a;fill-opacity:1" />
    <path
       fill="#5176c1"
       d="m 136.995,196.811 135.515,-23.888 -10.534,29.811 -36.369,6.309 23.599,28.275 -5.378,14.759 -15.814,2.807 -33.57,-40.264 -36.991,6.445 z"
       id="path6" />
    <circle
       cx="153"
       cy="144"
       r="39"
       fill="#7eb7e1"
       id="circle6"
       style="fill:#f7931a;fill-opacity:1" />
    <path
       fill="#ffffff"
       fill-rule="evenodd"
       d="m 170.186,138.446 c 0.78,-5.168 -3.166,-7.963 -8.58,-9.848 l 1.755,-6.997 -4.274,-1.072 -1.706,6.847 c -1.121,-0.282 -2.291,-0.542 -3.458,-0.812 l 1.709,-6.913 -4.289,-1.072 -1.755,7.036 c -0.927,-0.218 -1.837,-0.429 -2.73,-0.65 l -5.899,-1.463 -1.138,4.573 c 0,0 3.169,0.731 3.104,0.767 1.739,0.442 2.047,1.58 1.999,2.49 l -4.8,19.24 c -0.244,0.539 -0.78,1.319 -1.996,1.02 0.049,0.065 -3.12,-0.78 -3.12,-0.78 l -2.145,4.907 5.558,1.385 3.022,0.787 -1.755,7.117 4.29,1.063 1.755,-7.053 c 1.17,0.325 2.291,0.618 3.412,0.888 l -1.657,7 4.29,1.072 1.771,-7.117 c 7.28,1.388 12.773,0.835 15.08,-5.766 1.853,-5.32 -0.097,-8.385 -3.955,-10.387 2.776,-0.627 4.875,-2.47 5.46,-6.272 h 0.033 z m -9.782,13.715 c -1.314,5.33 -10.261,2.437 -13.163,1.722 l 2.34,-9.425 c 2.912,0.748 12.21,2.178 10.823,7.703 z m 1.332,-13.78 c -1.202,4.842 -8.652,2.388 -11.066,1.787 l 2.125,-8.58 c 2.418,0.585 10.195,1.703 8.938,6.773 v 0.02 z"
       id="path7" />
  </g>
</svg>
